<?xml version="1.0" encoding="UTF-8"?>
<!DOCTYPE svg PUBLIC "-//W3C//DTD SVG 1.1//EN" "http://www.w3.org/Graphics/SVG/1.1/DTD/svg11.dtd">
<svg xmlns="http://www.w3.org/2000/svg" version="1.1" width="500px" height="500px" style="shape-rendering:geometricPrecision; text-rendering:geometricPrecision; image-rendering:optimizeQuality; fill-rule:evenodd; clip-rule:evenodd" xmlns:xlink="http://www.w3.org/1999/xlink">
<g><path style="opacity:0.004" fill="#000000" d="M 408.5,3.5 C 408.897,2.47498 409.563,2.30831 410.5,3C 409.906,3.46434 409.239,3.63101 408.5,3.5 Z"/></g>
<g><path style="opacity:0.004" fill="#000000" d="M 122.5,10.5 C 123.833,11.1667 123.833,11.1667 122.5,10.5 Z"/></g>
<g><path style="opacity:0.004" fill="#000000" d="M 236.5,32.5 C 237.833,33.1667 237.833,33.1667 236.5,32.5 Z"/></g>
<g><path style="opacity:0.004" fill="#000000" d="M 404.5,32.5 C 405.833,33.1667 405.833,33.1667 404.5,32.5 Z"/></g>
<g><path style="opacity:0.004" fill="#000000" d="M 460.5,32.5 C 461.833,33.1667 461.833,33.1667 460.5,32.5 Z"/></g>
<g><path style="opacity:0.004" fill="#000000" d="M 66.5,34.5 C 67.8333,35.1667 67.8333,35.1667 66.5,34.5 Z"/></g>
<g><path style="opacity:0.004" fill="#000000" d="M 315.5,36.5 C 316.833,37.1667 316.833,37.1667 315.5,36.5 Z"/></g>
<g><path style="opacity:0.004" fill="#000000" d="M 88.5,38.5 C 89.8333,39.1667 89.8333,39.1667 88.5,38.5 Z"/></g>
<g><path style="opacity:0.004" fill="#000000" d="M 26.5,61.5 C 27.8333,62.1667 27.8333,62.1667 26.5,61.5 Z"/></g>
<g><path style="opacity:0.004" fill="#000000" d="M 101.5,70.5 C 102.833,71.1667 102.833,71.1667 101.5,70.5 Z"/></g>
<g><path style="opacity:0.004" fill="#000000" d="M 209.5,72.5 C 210.833,73.1667 210.833,73.1667 209.5,72.5 Z"/></g>
<g><path style="opacity:0.004" fill="#000000" d="M 340.5,72.5 C 341.833,73.1667 341.833,73.1667 340.5,72.5 Z"/></g>
<g><path style="opacity:0.004" fill="#000000" d="M 40.5,83.5 C 41.8333,84.1667 41.8333,84.1667 40.5,83.5 Z"/></g>
<g><path style="opacity:0.004" fill="#000000" d="M 437.5,87.5 C 438.833,88.1667 438.833,88.1667 437.5,87.5 Z"/></g>
<g><path style="opacity:0.004" fill="#000000" d="M 452.5,89.5 C 453.833,90.1667 453.833,90.1667 452.5,89.5 Z"/></g>
<g><path style="opacity:0.004" fill="#000000" d="M 490.5,90.5 C 491.833,91.1667 491.833,91.1667 490.5,90.5 Z"/></g>
<g><path style="opacity:0.004" fill="#000000" d="M 467.5,106.5 C 468.833,107.167 468.833,107.167 467.5,106.5 Z"/></g>
<g><path style="opacity:0.004" fill="#000000" d="M 497.5,107.5 C 498.833,108.167 498.833,108.167 497.5,107.5 Z"/></g>
<g><path style="opacity:0.004" fill="#000000" d="M 314.5,116.5 C 315.833,117.167 315.833,117.167 314.5,116.5 Z"/></g>
<g><path style="opacity:0.004" fill="#000000" d="M 53.5,123.5 C 54.8333,124.167 54.8333,124.167 53.5,123.5 Z"/></g>
<g><path style="opacity:0.004" fill="#000000" d="M 305.5,140.5 C 306.833,141.167 306.833,141.167 305.5,140.5 Z"/></g>
<g><path style="opacity:0.004" fill="#000000" d="M 45.5,144.5 C 46.8333,145.167 46.8333,145.167 45.5,144.5 Z"/></g>
<g><path style="opacity:0.004" fill="#000000" d="M 77.5,144.5 C 78.8333,145.167 78.8333,145.167 77.5,144.5 Z"/></g>
<g><path style="opacity:0.004" fill="#000000" d="M 175.5,148.5 C 176.833,149.167 176.833,149.167 175.5,148.5 Z"/></g>
<g><path style="opacity:0.004" fill="#000000" d="M 491.5,150.5 C 492.833,151.167 492.833,151.167 491.5,150.5 Z"/></g>
<g><path style="opacity:0.004" fill="#000000" d="M 491.5,159.5 C 492.833,160.167 492.833,160.167 491.5,159.5 Z"/></g>
<g><path style="opacity:0.004" fill="#000000" d="M 275.5,167.5 C 276.833,168.167 276.833,168.167 275.5,167.5 Z"/></g>
<g><path style="opacity:0.004" fill="#000000" d="M 253.5,172.5 C 254.833,173.167 254.833,173.167 253.5,172.5 Z"/></g>
<g><path style="opacity:0.004" fill="#000000" d="M 261.5,172.5 C 262.833,173.167 262.833,173.167 261.5,172.5 Z"/></g>
<g><path style="opacity:0.004" fill="#000000" d="M 399.5,173.5 C 400.833,174.167 400.833,174.167 399.5,173.5 Z"/></g>
<g><path style="opacity:0.004" fill="#000000" d="M 3.5,180.5 C 4.83333,181.167 4.83333,181.167 3.5,180.5 Z"/></g>
<g><path style="opacity:0.004" fill="#000000" d="M 481.5,182.5 C 482.833,183.167 482.833,183.167 481.5,182.5 Z"/></g>
<g><path style="opacity:0.004" fill="#000000" d="M 141.5,186.5 C 142.833,187.167 142.833,187.167 141.5,186.5 Z"/></g>
<g><path style="opacity:0.004" fill="#000000" d="M 355.5,195.5 C 356.833,196.167 356.833,196.167 355.5,195.5 Z"/></g>
<g><path style="opacity:0.004" fill="#000000" d="M 290.5,196.5 C 291.833,197.167 291.833,197.167 290.5,196.5 Z"/></g>
<g><path style="opacity:0.004" fill="#000000" d="M 372.5,196.5 C 373.833,197.167 373.833,197.167 372.5,196.5 Z"/></g>
<g><path style="opacity:0.004" fill="#000000" d="M 123.5,204.5 C 124.833,205.167 124.833,205.167 123.5,204.5 Z"/></g>
<g><path style="opacity:0.357" fill="#5a2a28" d="M 332.5,211.5 C 327.547,210.671 322.547,210.337 317.5,210.5C 322.672,207.713 327.672,208.046 332.5,211.5 Z"/></g>
<g><path style="opacity:0.357" fill="#591f1f" d="M 402.5,211.5 C 396.842,210.232 391.175,210.232 385.5,211.5C 391.238,207.901 396.904,207.901 402.5,211.5 Z"/></g>
<g><path style="opacity:1" fill="#b23438" d="M 402.5,211.5 C 403.167,212.5 403.833,213.5 404.5,214.5C 395.24,210.819 386.906,212.153 379.5,218.5C 379.733,216.938 380.4,215.605 381.5,214.5C 382.262,212.738 383.596,211.738 385.5,211.5C 391.175,210.232 396.842,210.232 402.5,211.5 Z"/></g>
<g><path style="opacity:0.42" fill="#6a2c32" d="M 317.5,210.5 C 313.925,212.729 310.592,215.395 307.5,218.5C 309.347,213.988 312.68,211.321 317.5,210.5 Z"/></g>
<g><path style="opacity:1" fill="#c6272d" d="M 463.5,212.5 C 463.5,242.833 463.5,273.167 463.5,303.5C 460.287,303.81 457.287,303.477 454.5,302.5C 457.167,302.5 459.833,302.5 462.5,302.5C 462.667,275.498 462.5,248.498 462,221.5C 459.661,229.061 459.161,236.728 460.5,244.5C 459.837,247.806 459.337,251.139 459,254.5C 458.667,254.833 458.333,255.167 458,255.5C 457.33,252.826 456.163,250.493 454.5,248.5C 454.39,236.484 454.723,224.484 455.5,212.5C 458.167,212.5 460.833,212.5 463.5,212.5 Z"/></g>
<g><path style="opacity:0.929" fill="#692126" d="M 156.5,212.5 C 158.31,215.145 159.31,218.145 159.5,221.5C 158.5,220.167 157.5,218.833 156.5,217.5C 156.5,215.833 156.5,214.167 156.5,212.5 Z"/></g>
<g><path style="opacity:0.886" fill="#782d31" d="M 183.5,213.5 C 183.23,217.358 181.897,220.691 179.5,223.5C 180.267,219.851 181.6,216.518 183.5,213.5 Z"/></g>
<g><path style="opacity:1" fill="#c2292f" d="M 404.5,214.5 C 405.239,214.369 405.906,214.536 406.5,215C 406.989,217.49 408.323,219.324 410.5,220.5C 411.452,222.045 411.785,223.712 411.5,225.5C 411.819,230.363 411.486,235.03 410.5,239.5C 410.318,234.206 409.818,234.206 409,239.5C 408.654,236.424 407.988,233.424 407,230.5C 406.333,229.167 405.667,229.167 405,230.5C 404.974,248.143 404.474,265.809 403.5,283.5C 400.39,285.044 397.056,286.044 393.5,286.5C 392.167,286.333 390.833,286.167 389.5,286C 388.748,285.329 388.414,284.496 388.5,283.5C 387.153,282.829 385.986,282.829 385,283.5C 384.798,281.744 384.298,280.078 383.5,278.5C 383.167,278.667 382.833,278.833 382.5,279C 381.549,282.057 381.216,285.223 381.5,288.5C 380.624,288.631 379.957,288.298 379.5,287.5C 378.871,285.259 377.871,283.259 376.5,281.5C 377.496,281.414 378.329,281.748 379,282.5C 379.539,273.444 380.539,264.444 382,255.5C 382.806,261.084 382.639,266.584 381.5,272C 382.025,272.692 382.692,273.192 383.5,273.5C 384.666,259.178 384.833,244.845 384,230.5C 383.667,230.833 383.333,231.167 383,231.5C 382.458,226.279 381.624,226.279 380.5,231.5C 380.062,228.705 379.062,226.372 377.5,224.5C 378.363,222.579 379.029,220.579 379.5,218.5C 386.906,212.153 395.24,210.819 404.5,214.5 Z M 391.5,222.5 C 393.167,222.5 394.833,222.5 396.5,222.5C 397.5,224.167 398.833,225.5 400.5,226.5C 400.5,244.5 400.5,262.5 400.5,280.5C 396.84,284.106 392.84,284.439 388.5,281.5C 387.539,263.201 387.206,244.868 387.5,226.5C 389.167,225.5 390.5,224.167 391.5,222.5 Z"/></g>
<g><path style="opacity:0.063" fill="#5a2c2d" d="M 156.5,212.5 C 152.936,211.577 149.269,211.244 145.5,211.5C 144.833,221.167 144.167,230.833 143.5,240.5C 143.334,230.494 143.5,220.494 144,210.5C 147.003,209.91 150.003,209.577 153,209.5C 154.95,209.707 156.116,210.707 156.5,212.5 Z"/></g>
<g><path style="opacity:0.882" fill="#953b3f" d="M 464.5,212.5 C 464.167,212.5 463.833,212.5 463.5,212.5C 460.435,211.182 457.269,211.182 454,212.5C 453.832,229.338 453.332,246.005 452.5,262.5C 452.5,261.5 452.5,260.5 452.5,259.5C 452.5,258.833 452.5,258.167 452.5,257.5C 452.333,242.163 452.5,226.83 453,211.5C 454.906,210.869 456.906,210.536 459,210.5C 461.295,210.547 463.129,211.213 464.5,212.5 Z"/></g>
<g><path style="opacity:1" fill="#c7282c" d="M 321.5,222.5 C 319.5,222.5 317.5,222.5 315.5,222.5C 315.5,224.167 315.5,225.833 315.5,227.5C 315.5,230.833 315.5,234.167 315.5,237.5C 316.048,239.394 317.048,241.06 318.5,242.5C 321.447,243.423 324.447,244.089 327.5,244.5C 327.414,245.496 327.748,246.329 328.5,247C 334.382,249.883 338.549,254.383 341,260.5C 341.667,267.167 341.667,273.833 341,280.5C 339.331,282.169 338.498,284.169 338.5,286.5C 337.5,286.5 336.5,286.5 335.5,286.5C 335.5,287.5 335.5,288.5 335.5,289.5C 331.15,291.045 326.65,292.045 322,292.5C 318.181,292.963 315.347,291.629 313.5,288.5C 313.119,287.069 312.119,286.236 310.5,286C 311.522,283.455 312.688,280.955 314,278.5C 318.105,283.816 322.938,284.816 328.5,281.5C 330.017,281.489 331.184,280.823 332,279.5C 332.5,273.175 332.666,266.842 332.5,260.5C 331.5,260.5 330.5,260.5 329.5,260.5C 328.738,258.738 327.404,257.738 325.5,257.5C 325.423,256.25 324.756,255.417 323.5,255C 319.767,253.787 316.1,252.62 312.5,251.5C 310.542,248.208 308.209,245.208 305.5,242.5C 305.5,236.5 305.5,230.5 305.5,224.5C 312.827,211.54 322.827,209.04 335.5,217C 336.793,217.49 338.127,217.657 339.5,217.5C 340.164,222.473 340.497,227.473 340.5,232.5C 338.08,232.708 335.747,232.374 333.5,231.5C 333.323,222.96 329.323,219.96 321.5,222.5 Z"/></g>
<g><path style="opacity:0.408" fill="#722c30" d="M 381.5,214.5 C 380.4,215.605 379.733,216.938 379.5,218.5C 378.333,220.041 377,221.375 375.5,222.5C 376.442,218.91 378.442,216.243 381.5,214.5 Z"/></g>
<g><path style="opacity:0.737" fill="#602121" d="M 67.5,251.5 C 60.5097,251.999 53.5097,252.332 46.5,252.5C 46.3335,242.494 46.5002,232.494 47,222.5C 54.4129,221.519 61.9129,221.186 69.5,221.5C 69.5,218.167 69.5,214.833 69.5,211.5C 58.5,211.5 47.5,211.5 36.5,211.5C 38.9476,210.471 41.6143,209.804 44.5,209.5C 53.013,209.359 61.513,209.693 70,210.5C 70.7961,214.755 70.6295,218.921 69.5,223C 62.1975,222.6 54.8641,222.766 47.5,223.5C 47.3335,232.839 47.5002,242.173 48,251.5C 54.5987,250.174 61.0987,250.174 67.5,251.5 Z"/></g>
<g><path style="opacity:0.157" fill="#4e1c20" d="M 465.5,213.5 C 464.833,213.5 464.5,213.167 464.5,212.5C 463.129,211.213 461.295,210.547 459,210.5C 456.906,210.536 454.906,210.869 453,211.5C 452.5,226.83 452.333,242.163 452.5,257.5C 452.167,257.5 451.833,257.5 451.5,257.5C 451.333,241.83 451.5,226.163 452,210.5C 456.45,209.2 460.95,209.2 465.5,210.5C 466.791,211.527 466.791,212.527 465.5,213.5 Z"/></g>
<g><path style="opacity:1" fill="#c72a2e" d="M 106.5,212.5 C 109.167,212.5 111.833,212.5 114.5,212.5C 114.833,212.5 115.167,212.5 115.5,212.5C 115.5,236.167 115.5,259.833 115.5,283.5C 117.5,283.5 119.5,283.5 121.5,283.5C 126.833,283.5 132.167,283.5 137.5,283.5C 137.81,286.713 137.477,289.713 136.5,292.5C 126.833,292.5 117.167,292.5 107.5,292.5C 107.5,291.5 107.5,290.5 107.5,289.5C 110.278,289.978 112.278,288.978 113.5,286.5C 112.675,285.614 111.675,285.281 110.5,285.5C 110.756,281.138 110.923,276.805 111,272.5C 110.195,274.901 109.362,274.734 108.5,272C 109.224,265.553 109.891,259.053 110.5,252.5C 109.791,244.065 109.791,235.731 110.5,227.5C 109.902,226.205 109.402,224.872 109,223.5C 107.984,224.634 107.317,224.301 107,222.5C 106.502,219.183 106.335,215.85 106.5,212.5 Z"/></g>
<g><path style="opacity:1" fill="#c62832" d="M 106.5,212.5 C 106.335,215.85 106.502,219.183 107,222.5C 107.317,224.301 107.984,224.634 109,223.5C 109.402,224.872 109.902,226.205 110.5,227.5C 109.791,235.731 109.791,244.065 110.5,252.5C 109.891,259.053 109.224,265.553 108.5,272C 109.362,274.734 110.195,274.901 111,272.5C 110.923,276.805 110.756,281.138 110.5,285.5C 111.675,285.281 112.675,285.614 113.5,286.5C 112.278,288.978 110.278,289.978 107.5,289.5C 107.5,290.5 107.5,291.5 107.5,292.5C 117.167,292.5 126.833,292.5 136.5,292.5C 129.966,293.239 123.299,293.906 116.5,294.5C 113.167,294.5 109.833,294.5 106.5,294.5C 105.172,267.069 105.172,239.736 106.5,212.5 Z"/></g>
<g><path style="opacity:1" fill="#c4282e" d="M 194.5,231.5 C 193.883,231.389 193.383,231.056 193,230.5C 192.667,232.167 192.333,233.833 192,235.5C 191.71,233.048 191.044,230.715 190,228.5C 189.498,232.366 188.498,236.033 187,239.5C 186.5,256.163 186.333,272.83 186.5,289.5C 188.833,289.5 191.167,289.5 193.5,289.5C 193.178,283.642 193.511,277.975 194.5,272.5C 194.5,278.5 194.5,284.5 194.5,290.5C 191.5,290.5 188.5,290.5 185.5,290.5C 185.83,274.658 185.496,258.991 184.5,243.5C 181.641,250.076 178.974,256.742 176.5,263.5C 177.098,258.441 177.098,253.441 176.5,248.5C 177.628,247.738 178.795,247.071 180,246.5C 180.399,243.013 181.899,240.179 184.5,238C 182.286,234.88 182.286,231.88 184.5,229C 184.167,228.833 183.833,228.667 183.5,228.5C 182.852,230.149 181.852,231.482 180.5,232.5C 178.642,239.946 176.309,246.446 173.5,252C 172.034,252.635 170.7,253.469 169.5,254.5C 167.517,252.19 166.517,249.523 166.5,246.5C 167.143,248.076 168.143,249.41 169.5,250.5C 169.393,252.379 169.893,252.712 171,251.5C 173.22,246.676 174.72,241.676 175.5,236.5C 175.5,236.167 175.5,235.833 175.5,235.5C 178.19,232.431 179.523,228.764 179.5,224.5C 179.5,224.167 179.5,223.833 179.5,223.5C 181.897,220.691 183.23,217.358 183.5,213.5C 187.064,212.577 190.731,212.244 194.5,212.5C 194.5,218.833 194.5,225.167 194.5,231.5 Z"/></g>
<g><path style="opacity:0.912" fill="#b5393e" d="M 228.5,221.5 C 234.645,220.51 240.978,220.177 247.5,220.5C 247.5,217.833 247.5,215.167 247.5,212.5C 237.167,212.5 226.833,212.5 216.5,212.5C 216.5,238.167 216.5,263.833 216.5,289.5C 219.5,289.5 222.5,289.5 225.5,289.5C 225.172,278.986 225.506,268.653 226.5,258.5C 226.5,269.167 226.5,279.833 226.5,290.5C 222.833,290.5 219.167,290.5 215.5,290.5C 215.5,264.167 215.5,237.833 215.5,211.5C 226.833,211.5 238.167,211.5 249.5,211.5C 249.5,214.833 249.5,218.167 249.5,221.5C 242.5,221.5 235.5,221.5 228.5,221.5 Z"/></g>
<g><path style="opacity:1" fill="#c9262e" d="M 291.5,281.5 C 291.843,279.517 291.176,278.183 289.5,277.5C 289.5,275.5 289.5,273.5 289.5,271.5C 288.5,271.5 287.5,271.5 286.5,271.5C 286.333,252.497 286.5,233.497 287,214.5C 289.041,213.577 291.208,213.244 293.5,213.5C 293.667,234.503 293.5,255.503 293,276.5C 292.802,278.382 292.302,280.048 291.5,281.5 Z"/></g>
<g><path style="opacity:1" fill="#7f2125" d="M 321.5,222.5 C 319.5,223.833 317.833,225.5 316.5,227.5C 316.167,227.5 315.833,227.5 315.5,227.5C 315.5,225.833 315.5,224.167 315.5,222.5C 317.5,222.5 319.5,222.5 321.5,222.5 Z"/></g>
<g><path style="opacity:1" fill="#c9272b" d="M 435.5,214.5 C 435.5,215.167 435.833,215.5 436.5,215.5C 436.352,220.319 437.018,224.985 438.5,229.5C 438.421,230.93 438.754,232.264 439.5,233.5C 438.255,238.825 436.255,243.825 433.5,248.5C 433.5,265.167 433.5,281.833 433.5,298.5C 430.5,298.5 427.5,298.5 424.5,298.5C 424.5,269.833 424.5,241.167 424.5,212.5C 428.487,212.01 432.154,212.676 435.5,214.5 Z"/></g>
<g><path style="opacity:1" fill="#b82e33" d="M 463.5,212.5 C 460.833,212.5 458.167,212.5 455.5,212.5C 454.723,224.484 454.39,236.484 454.5,248.5C 454.5,254.167 454.5,259.833 454.5,265.5C 453.883,265.611 453.383,265.944 453,266.5C 449.372,263.705 447.872,260.038 448.5,255.5C 449.782,258.47 451.115,260.803 452.5,262.5C 453.332,246.005 453.832,229.338 454,212.5C 457.269,211.182 460.435,211.182 463.5,212.5 Z"/></g>
<g><path style="opacity:1" fill="#c8262b" d="M 156.5,217.5 C 157.5,218.833 158.5,220.167 159.5,221.5C 160.434,222.568 160.768,223.901 160.5,225.5C 161.393,230.517 163.06,235.183 165.5,239.5C 165.5,241.5 165.5,243.5 165.5,245.5C 164.213,244.232 163.213,244.565 162.5,246.5C 161.548,248.045 161.215,249.712 161.5,251.5C 161.135,248.272 159.635,245.606 157,243.5C 155.97,243.836 155.47,244.503 155.5,245.5C 154.504,260.324 154.171,275.324 154.5,290.5C 151.833,290.833 149.167,291.167 146.5,291.5C 146.5,265.167 146.5,238.833 146.5,212.5C 149.247,212.187 151.914,212.52 154.5,213.5C 154.994,215.026 155.661,216.359 156.5,217.5 Z"/></g>
<g><path style="opacity:0.255" fill="#65272c" d="M 436.5,215.5 C 435.833,215.5 435.5,215.167 435.5,214.5C 435.586,213.504 435.252,212.671 434.5,212C 430.848,211.501 427.182,211.335 423.5,211.5C 423.5,240.833 423.5,270.167 423.5,299.5C 426.385,299.194 429.052,299.527 431.5,300.5C 430.833,300.5 430.5,300.833 430.5,301.5C 427.946,300.612 425.279,300.279 422.5,300.5C 422.701,297.272 422.367,294.105 421.5,291C 422.32,264.197 422.82,237.363 423,210.5C 426.744,209.374 430.577,209.207 434.5,210C 436.155,211.444 436.822,213.278 436.5,215.5 Z"/></g>
<g><path style="opacity:0.007" fill="#130000" d="M 227.5,222.5 C 228.5,222.5 229.5,222.5 230.5,222.5C 229.105,224.693 228.105,227.026 227.5,229.5C 227.5,227.167 227.5,224.833 227.5,222.5 Z"/></g>
<g><path style="opacity:0.49" fill="#300e07" d="M 465.5,218.5 C 466.833,224.167 466.833,229.833 465.5,235.5C 465.802,232.941 465.468,230.607 464.5,228.5C 465.051,225.193 465.384,221.86 465.5,218.5 Z"/></g>
<g><path style="opacity:1" fill="#b73036" d="M 145.5,211.5 C 149.269,211.244 152.936,211.577 156.5,212.5C 156.5,214.167 156.5,215.833 156.5,217.5C 155.661,216.359 154.994,215.026 154.5,213.5C 151.914,212.52 149.247,212.187 146.5,212.5C 146.5,238.833 146.5,265.167 146.5,291.5C 149.167,291.167 151.833,290.833 154.5,290.5C 154.171,275.324 154.504,260.324 155.5,245.5C 155.5,261.167 155.5,276.833 155.5,292.5C 152.167,292.5 148.833,292.5 145.5,292.5C 145.5,265.5 145.5,238.5 145.5,211.5 Z"/></g>
<g><path style="opacity:1" fill="#c8262d" d="M 228.5,221.5 C 228.167,221.5 227.833,221.5 227.5,221.5C 225.532,229.433 224.865,237.766 225.5,246.5C 224.835,244.302 224.168,241.969 223.5,239.5C 223.167,240.833 222.833,242.167 222.5,243.5C 221.902,257.831 221.235,272.165 220.5,286.5C 219.5,287 218.5,287.5 217.5,288C 219.81,288.497 222.143,288.663 224.5,288.5C 224.334,278.161 224.5,267.828 225,257.5C 225.671,256.748 226.504,256.414 227.5,256.5C 227.5,256.833 227.5,257.167 227.5,257.5C 226.833,257.5 226.5,257.833 226.5,258.5C 225.506,268.653 225.172,278.986 225.5,289.5C 222.5,289.5 219.5,289.5 216.5,289.5C 216.5,263.833 216.5,238.167 216.5,212.5C 226.833,212.5 237.167,212.5 247.5,212.5C 247.5,215.167 247.5,217.833 247.5,220.5C 240.978,220.177 234.645,220.51 228.5,221.5 Z"/></g>
<g><path style="opacity:0.79" fill="#9c3f43" d="M 259.5,211.5 C 259.169,234.339 259.503,257.006 260.5,279.5C 261.738,282.738 263.404,285.738 265.5,288.5C 261.209,286.185 258.875,282.518 258.5,277.5C 258.169,255.327 258.503,233.327 259.5,211.5 Z"/></g>
<g><path style="opacity:1" fill="#be2f35" d="M 295.5,211.5 C 295.667,233.503 295.5,255.503 295,277.5C 293.681,279.25 293.181,281.25 293.5,283.5C 290.496,283.335 288.496,284.668 287.5,287.5C 285.955,288.452 284.288,288.785 282.5,288.5C 282.369,287.761 282.536,287.094 283,286.5C 286.697,287.643 287.197,286.81 284.5,284C 286.927,283.098 289.26,282.264 291.5,281.5C 292.302,280.048 292.802,278.382 293,276.5C 293.5,255.503 293.667,234.503 293.5,213.5C 291.208,213.244 289.041,213.577 287,214.5C 286.5,233.497 286.333,252.497 286.5,271.5C 287.5,271.5 288.5,271.5 289.5,271.5C 289.5,273.5 289.5,275.5 289.5,277.5C 288.533,276.194 287.199,275.527 285.5,275.5C 285.631,278.367 284.297,280.033 281.5,280.5C 283.268,277.838 283.935,274.838 283.5,271.5C 284.497,251.674 284.83,231.674 284.5,211.5C 288.167,211.5 291.833,211.5 295.5,211.5 Z"/></g>
<g><path style="opacity:0.835" fill="#793237" d="M 179.5,224.5 C 179.523,228.764 178.19,232.431 175.5,235.5C 176.462,231.605 177.796,227.939 179.5,224.5 Z"/></g>
<g><path style="opacity:0.402" fill="#5b181a" d="M 115.5,210.5 C 116.498,234.328 116.831,258.328 116.5,282.5C 119.041,281.897 121.374,281.897 123.5,282.5C 122.508,282.328 121.842,282.662 121.5,283.5C 119.5,283.5 117.5,283.5 115.5,283.5C 115.5,259.833 115.5,236.167 115.5,212.5C 115.5,211.833 115.5,211.167 115.5,210.5 Z"/></g>
<g><path style="opacity:0.004" fill="#000000" d="M 242.5,229.5 C 243.833,230.167 243.833,230.167 242.5,229.5 Z"/></g>
<g><path style="opacity:0.145" fill="#612021" d="M 305.5,222.5 C 305.5,223.167 305.5,223.833 305.5,224.5C 305.5,230.5 305.5,236.5 305.5,242.5C 303.981,239.474 303.315,236.141 303.5,232.5C 303.315,228.859 303.981,225.526 305.5,222.5 Z"/></g>
<g><path style="opacity:0.627" fill="#551619" d="M 160.5,225.5 C 162.935,229.799 164.602,234.466 165.5,239.5C 163.06,235.183 161.393,230.517 160.5,225.5 Z"/></g>
<g><path style="opacity:1" fill="#8b2a2e" d="M 436.5,215.5 C 439.325,221.892 441.659,228.559 443.5,235.5C 443.5,236.833 443.5,238.167 443.5,239.5C 441.494,236.315 439.828,232.982 438.5,229.5C 437.018,224.985 436.352,220.319 436.5,215.5 Z"/></g>
<g><path style="opacity:0.088" fill="#320304" d="M 295.5,210.5 C 296.663,232.996 296.83,255.663 296,278.5C 295.626,280.491 294.793,282.158 293.5,283.5C 293.181,281.25 293.681,279.25 295,277.5C 295.5,255.503 295.667,233.503 295.5,211.5C 295.5,211.167 295.5,210.833 295.5,210.5 Z"/></g>
<g><path style="opacity:0.139" fill="#41080a" d="M 315.5,227.5 C 315.833,227.5 316.167,227.5 316.5,227.5C 316.323,231.234 316.656,234.901 317.5,238.5C 316.833,238.167 316.167,237.833 315.5,237.5C 315.5,234.167 315.5,230.833 315.5,227.5 Z"/></g>
<g><path style="opacity:0.102" fill="#562022" d="M 269.5,210.5 C 265.958,210.187 262.625,210.521 259.5,211.5C 258.503,233.327 258.169,255.327 258.5,277.5C 257.337,255.337 257.17,233.004 258,210.5C 261.934,209.179 265.767,209.179 269.5,210.5 Z"/></g>
<g><path style="opacity:1" fill="#a33237" d="M 317.5,210.5 C 322.547,210.337 327.547,210.671 332.5,211.5C 339.246,213.639 342.58,218.306 342.5,225.5C 342.5,228.167 342.5,230.833 342.5,233.5C 338.4,233.763 334.4,233.43 330.5,232.5C 329.746,229.977 329.08,227.311 328.5,224.5C 326.49,222.829 324.157,222.162 321.5,222.5C 329.323,219.96 333.323,222.96 333.5,231.5C 335.747,232.374 338.08,232.708 340.5,232.5C 340.497,227.473 340.164,222.473 339.5,217.5C 338.127,217.657 336.793,217.49 335.5,217C 322.827,209.04 312.827,211.54 305.5,224.5C 305.5,223.833 305.5,223.167 305.5,222.5C 305.66,220.847 306.326,219.514 307.5,218.5C 310.592,215.395 313.925,212.729 317.5,210.5 Z"/></g>
<g><path style="opacity:0.537" fill="#481113" d="M 342.5,225.5 C 343.803,228.355 343.803,231.355 342.5,234.5C 338.892,235.593 335.225,235.76 331.5,235C 330.748,234.329 330.414,233.496 330.5,232.5C 334.4,233.43 338.4,233.763 342.5,233.5C 342.5,230.833 342.5,228.167 342.5,225.5 Z"/></g>
<g><path style="opacity:1" fill="#b9363d" d="M 35.5,212.5 C 35.8333,212.5 36.1667,212.5 36.5,212.5C 36.5,226.833 36.5,241.167 36.5,255.5C 36.5,271.167 36.5,286.833 36.5,302.5C 39.5,302.5 42.5,302.5 45.5,302.5C 45.5,302.833 45.5,303.167 45.5,303.5C 43.8828,304.038 42.2161,304.371 40.5,304.5C 38.5328,304.739 36.6995,304.406 35,303.5C 34.5,273.835 34.3334,244.169 34.5,214.5C 34.3284,213.508 34.6618,212.842 35.5,212.5 Z"/></g>
<g><path style="opacity:1" fill="#cb252e" d="M 36.5,212.5 C 47.1667,212.5 57.8333,212.5 68.5,212.5C 68.5,215.167 68.5,217.833 68.5,220.5C 61.1667,220.5 53.8333,220.5 46.5,220.5C 46.19,219.262 45.69,219.262 45,220.5C 44.8313,227.856 44.3313,235.189 43.5,242.5C 42.0944,241.332 40.9277,241.665 40,243.5C 39.2991,247.756 38.1324,251.756 36.5,255.5C 36.5,241.167 36.5,226.833 36.5,212.5 Z"/></g>
<g><path style="opacity:0.978" fill="#b8353c" d="M 90.5,211.5 C 90.5,239.833 90.5,268.167 90.5,296.5C 89.1667,296.5 87.8333,296.5 86.5,296.5C 87.209,295.596 88.209,295.263 89.5,295.5C 89.5,267.833 89.5,240.167 89.5,212.5C 86.5,212.5 83.5,212.5 80.5,212.5C 80.5,240.5 80.5,268.5 80.5,296.5C 82.1667,296.5 83.8333,296.5 85.5,296.5C 85.5,296.833 85.5,297.167 85.5,297.5C 83.5,297.5 81.5,297.5 79.5,297.5C 79.5,294.833 79.5,292.167 79.5,289.5C 79.5,263.5 79.5,237.5 79.5,211.5C 83.1667,211.5 86.8333,211.5 90.5,211.5 Z"/></g>
<g><path style="opacity:1" fill="#c9272e" d="M 86.5,296.5 C 86.1667,296.5 85.8333,296.5 85.5,296.5C 83.8333,296.5 82.1667,296.5 80.5,296.5C 80.5,268.5 80.5,240.5 80.5,212.5C 83.5,212.5 86.5,212.5 89.5,212.5C 89.5,240.167 89.5,267.833 89.5,295.5C 88.209,295.263 87.209,295.596 86.5,296.5 Z"/></g>
<g><path style="opacity:0.204" fill="#642b30" d="M 230.5,222.5 C 229.5,222.5 228.5,222.5 227.5,222.5C 227.5,222.167 227.5,221.833 227.5,221.5C 227.833,221.5 228.167,221.5 228.5,221.5C 235.5,221.5 242.5,221.5 249.5,221.5C 249.5,218.167 249.5,214.833 249.5,211.5C 238.167,211.5 226.833,211.5 215.5,211.5C 215.5,237.833 215.5,264.167 215.5,290.5C 215.5,290.833 215.5,291.167 215.5,291.5C 214.336,264.67 214.17,237.67 215,210.5C 226.09,209.347 237.257,209.18 248.5,210C 249.743,211.87 250.41,214.036 250.5,216.5C 250.167,218.5 249.833,220.5 249.5,222.5C 243.348,222.6 237.014,222.6 230.5,222.5 Z"/></g>
<g><path style="opacity:0.067" fill="#2b0100" d="M 386.5,226.5 C 386.833,226.5 387.167,226.5 387.5,226.5C 387.206,244.868 387.539,263.201 388.5,281.5C 387.778,281.082 387.278,280.416 387,279.5C 386.5,261.836 386.333,244.17 386.5,226.5 Z"/></g>
<g><path style="opacity:0.713" fill="#8a3133" d="M 400.5,280.5 C 400.5,262.5 400.5,244.5 400.5,226.5C 400.167,224.167 398.833,222.833 396.5,222.5C 394.833,222.5 393.167,222.5 391.5,222.5C 389.167,222.833 387.833,224.167 387.5,226.5C 387.167,226.5 386.833,226.5 386.5,226.5C 386.823,222.844 388.823,220.844 392.5,220.5C 396.764,220.333 399.93,222 402,225.5C 402.667,243.5 402.667,261.5 402,279.5C 401.617,280.056 401.117,280.389 400.5,280.5 Z"/></g>
<g><path style="opacity:0.271" fill="#3b080d" d="M 396.5,222.5 C 398.833,222.833 400.167,224.167 400.5,226.5C 398.833,225.5 397.5,224.167 396.5,222.5 Z"/></g>
<g><path style="opacity:0.016" fill="#3c0608" d="M 391.5,222.5 C 390.5,224.167 389.167,225.5 387.5,226.5C 387.833,224.167 389.167,222.833 391.5,222.5 Z"/></g>
<g><path style="opacity:1" fill="#c9262b" d="M 377.5,224.5 C 379.062,226.372 380.062,228.705 380.5,231.5C 381.624,226.279 382.458,226.279 383,231.5C 383.333,231.167 383.667,230.833 384,230.5C 384.833,244.845 384.666,259.178 383.5,273.5C 382.692,273.192 382.025,272.692 381.5,272C 382.639,266.584 382.806,261.084 382,255.5C 380.539,264.444 379.539,273.444 379,282.5C 378.329,281.748 377.496,281.414 376.5,281.5C 376.17,262.326 376.503,243.326 377.5,224.5 Z"/></g>
<g><path style="opacity:0.625" fill="#601a1b" d="M 402.5,211.5 C 409.197,214.197 413.031,219.197 414,226.5C 414.667,244.833 414.667,263.167 414,281.5C 413.626,283.491 412.793,285.158 411.5,286.5C 412.804,266.027 412.804,245.693 411.5,225.5C 411.785,223.712 411.452,222.045 410.5,220.5C 408.323,219.324 406.989,217.49 406.5,215C 405.906,214.536 405.239,214.369 404.5,214.5C 403.833,213.5 403.167,212.5 402.5,211.5 Z"/></g>
<g><path style="opacity:0.918" fill="#6a2227" d="M 175.5,236.5 C 174.72,241.676 173.22,246.676 171,251.5C 169.893,252.712 169.393,252.379 169.5,250.5C 171.695,245.915 173.695,241.249 175.5,236.5 Z"/></g>
<g><path style="opacity:0.098" fill="#380b0b" d="M 443.5,235.5 C 444.267,236.172 444.934,237.005 445.5,238C 445.034,239.299 445.034,240.799 445.5,242.5C 444.599,241.71 443.932,240.71 443.5,239.5C 443.5,238.167 443.5,236.833 443.5,235.5 Z"/></g>
<g><path style="opacity:0.592" fill="#6e3137" d="M 91.5,211.5 C 91.1667,211.5 90.8333,211.5 90.5,211.5C 86.8333,211.5 83.1667,211.5 79.5,211.5C 79.5,237.5 79.5,263.5 79.5,289.5C 78.8333,289.5 78.1667,289.5 77.5,289.5C 77.5644,264.061 77.5644,238.561 77.5,213C 77.3875,211.338 78.0542,210.171 79.5,209.5C 81.6581,210.002 83.9914,210.002 86.5,209.5C 88.6397,209.556 90.3064,210.223 91.5,211.5 Z"/></g>
<g><path style="opacity:1" fill="#7e2025" d="M 315.5,237.5 C 316.167,237.833 316.833,238.167 317.5,238.5C 320.534,241.016 323.868,243.016 327.5,244.5C 324.447,244.089 321.447,243.423 318.5,242.5C 317.048,241.06 316.048,239.394 315.5,237.5 Z"/></g>
<g><path style="opacity:1" fill="#b53138" d="M 379.5,218.5 C 379.029,220.579 378.363,222.579 377.5,224.5C 376.503,243.326 376.17,262.326 376.5,281.5C 375.503,262.007 375.17,242.34 375.5,222.5C 377,221.375 378.333,220.041 379.5,218.5 Z"/></g>
<g><path style="opacity:0.592" fill="#733232" d="M 295.5,210.5 C 295.5,210.833 295.5,211.167 295.5,211.5C 291.833,211.5 288.167,211.5 284.5,211.5C 284.83,231.674 284.497,251.674 283.5,271.5C 283.5,270.833 283.167,270.5 282.5,270.5C 282.185,250.476 282.685,230.476 284,210.5C 287.727,210.041 291.561,210.041 295.5,210.5 Z"/></g>
<g><path style="opacity:0.463" fill="#2c2e2f" d="M 479.5,235.5 C 490.719,235.967 495.219,241.633 493,252.5C 486.715,260.124 480.048,260.457 473,253.5C 470.624,245.906 472.791,239.906 479.5,235.5 Z"/></g>
<g><path style="opacity:1" fill="#e3e4e5" d="M 478.5,238.5 C 487.495,237.663 491.661,241.663 491,250.5C 490.215,252.286 489.049,253.786 487.5,255C 477.396,257.556 472.896,253.723 474,243.5C 475.707,241.963 477.207,240.296 478.5,238.5 Z"/></g>
<g><path style="opacity:0.678" fill="#642226" d="M 259.5,211.5 C 262.625,210.521 265.958,210.187 269.5,210.5C 270.289,210.783 270.956,211.283 271.5,212C 271.492,233.882 271.492,255.715 271.5,277.5C 270.778,277.082 270.278,276.416 270,275.5C 269.5,254.169 269.333,232.836 269.5,211.5C 266.167,211.5 262.833,211.5 259.5,211.5 Z"/></g>
<g><path style="opacity:1" fill="#b13538" d="M 114.5,212.5 C 111.833,212.5 109.167,212.5 106.5,212.5C 105.172,239.736 105.172,267.069 106.5,294.5C 104.508,267.187 103.842,239.52 104.5,211.5C 108.042,211.187 111.375,211.521 114.5,212.5 Z"/></g>
<g><path style="opacity:0.905" fill="#8e2d32" d="M 195.5,291.5 C 191.833,291.5 188.167,291.5 184.5,291.5C 184.5,275.5 184.5,259.5 184.5,243.5C 185.496,258.991 185.83,274.658 185.5,290.5C 188.5,290.5 191.5,290.5 194.5,290.5C 194.5,284.5 194.5,278.5 194.5,272.5C 194.5,258.833 194.5,245.167 194.5,231.5C 194.5,225.167 194.5,218.833 194.5,212.5C 190.731,212.244 187.064,212.577 183.5,213.5C 183.685,211.804 184.519,210.471 186,209.5C 189.185,210.204 192.351,210.537 195.5,210.5C 196.829,237.664 196.829,264.664 195.5,291.5 Z"/></g>
<g><path style="opacity:0.678" fill="#742926" d="M 305.5,242.5 C 308.209,245.208 310.542,248.208 312.5,251.5C 309.083,249.408 306.75,246.408 305.5,242.5 Z"/></g>
<g><path style="opacity:0.627" fill="#491113" d="M 445.5,242.5 C 446.871,244.936 447.871,247.603 448.5,250.5C 446.345,248.383 445.345,245.716 445.5,242.5 Z"/></g>
<g><path style="opacity:0.488" fill="#762729" d="M 115.5,210.5 C 115.5,211.167 115.5,211.833 115.5,212.5C 115.167,212.5 114.833,212.5 114.5,212.5C 111.375,211.521 108.042,211.187 104.5,211.5C 103.842,239.52 104.508,267.187 106.5,294.5C 109.833,294.5 113.167,294.5 116.5,294.5C 116.5,294.833 116.5,295.167 116.5,295.5C 112.51,296.19 108.51,296.357 104.5,296C 103.707,294.915 103.04,293.748 102.5,292.5C 103.491,264.878 103.825,237.211 103.5,209.5C 107.702,209.183 111.702,209.517 115.5,210.5 Z"/></g>
<g><path style="opacity:0.749" fill="#631a1f" d="M 165.5,239.5 C 167.208,242.95 168.541,246.617 169.5,250.5C 168.143,249.41 167.143,248.076 166.5,246.5C 166.5,245.833 166.167,245.5 165.5,245.5C 165.5,243.5 165.5,241.5 165.5,239.5 Z"/></g>
<g><path style="opacity:0.016" fill="#521415" d="M 334.5,248.5 C 337.167,249.167 338.833,250.833 339.5,253.5C 337.5,252.167 335.833,250.5 334.5,248.5 Z"/></g>
<g><path style="opacity:1" fill="#b72e31" d="M 259.5,211.5 C 262.833,211.5 266.167,211.5 269.5,211.5C 269.333,232.836 269.5,254.169 270,275.5C 270.278,276.416 270.778,277.082 271.5,277.5C 272.338,277.842 272.672,278.508 272.5,279.5C 273.312,280.993 274.645,281.66 276.5,281.5C 277.726,281.48 278.726,281.147 279.5,280.5C 280.167,280.5 280.833,280.5 281.5,280.5C 280.306,281.777 278.64,282.444 276.5,282.5C 274.833,282.167 273.167,281.833 271.5,281.5C 270.304,279.855 269.304,278.189 268.5,276.5C 268.5,255.167 268.5,233.833 268.5,212.5C 265.833,212.5 263.167,212.5 260.5,212.5C 260.5,233.5 260.5,254.5 260.5,275.5C 260.5,276.833 260.5,278.167 260.5,279.5C 259.503,257.006 259.169,234.339 259.5,211.5 Z"/></g>
<g><path style="opacity:1" fill="#ca262b" d="M 268.5,276.5 C 268.157,278.225 267.157,278.725 265.5,278C 264.903,276.938 264.57,275.772 264.5,274.5C 265.791,257.508 265.791,240.508 264.5,223.5C 263.667,239.49 263.167,255.49 263,271.5C 262.066,272.858 261.232,274.192 260.5,275.5C 260.5,254.5 260.5,233.5 260.5,212.5C 263.167,212.5 265.833,212.5 268.5,212.5C 268.5,233.833 268.5,255.167 268.5,276.5 Z"/></g>
<g><path style="opacity:0.508" fill="#6f2426" d="M 375.5,222.5 C 375.17,242.34 375.503,262.007 376.5,281.5C 377.871,283.259 378.871,285.259 379.5,287.5C 379.957,288.298 380.624,288.631 381.5,288.5C 382.082,289.931 382.915,291.264 384,292.5C 385.878,293.053 387.378,294.053 388.5,295.5C 381.829,293.553 377.329,289.219 375,282.5C 374.046,270.296 373.546,258.296 373.5,246.5C 373.899,238.324 374.565,230.324 375.5,222.5 Z"/></g>
<g><path style="opacity:1" fill="#333333" d="M 484.5,241.5 C 486.017,241.511 487.184,242.177 488,243.5C 490.219,251.271 487.386,254.771 479.5,254C 474.274,249.585 474.274,245.251 479.5,241C 481.387,240.22 483.054,240.387 484.5,241.5 Z"/></g>
<g><path style="opacity:0.991" fill="#dddede" d="M 484.5,241.5 C 486.314,244.185 486.481,247.185 485,250.5C 483.274,251.576 481.441,251.743 479.5,251C 479.594,248.593 479.427,246.093 479,243.5C 480.444,241.845 482.278,241.178 484.5,241.5 Z"/></g>
<g><path style="opacity:1" fill="#474948" d="M 481.5,248.5 C 483.337,248.639 483.67,249.306 482.5,250.5C 481.702,250.043 481.369,249.376 481.5,248.5 Z"/></g>
<g><path style="opacity:1" fill="#232424" d="M 480.5,243.5 C 483.957,243.667 484.29,244.667 481.5,246.5C 480.614,245.675 480.281,244.675 480.5,243.5 Z"/></g>
<g><path style="opacity:1" fill="#c8262e" d="M 46.5,220.5 C 45.3575,231.424 45.1909,242.424 46,253.5C 52.6228,253.575 59.4562,253.575 66.5,253.5C 66.5,256.167 66.5,258.833 66.5,261.5C 59.5,261.5 52.5,261.5 45.5,261.5C 45.5,275.167 45.5,288.833 45.5,302.5C 42.5,302.5 39.5,302.5 36.5,302.5C 36.5,286.833 36.5,271.167 36.5,255.5C 38.1324,251.756 39.2991,247.756 40,243.5C 40.9277,241.665 42.0944,241.332 43.5,242.5C 44.3313,235.189 44.8313,227.856 45,220.5C 45.69,219.262 46.19,219.262 46.5,220.5 Z"/></g>
<g><path style="opacity:1" fill="#b9373d" d="M 227.5,221.5 C 227.5,221.833 227.5,222.167 227.5,222.5C 226.344,230.323 226.177,238.323 227,246.5C 233.41,247.478 239.91,247.811 246.5,247.5C 246.5,250.833 246.5,254.167 246.5,257.5C 240.167,257.5 233.833,257.5 227.5,257.5C 227.5,257.167 227.5,256.833 227.5,256.5C 233.5,256.5 239.5,256.5 245.5,256.5C 245.5,253.833 245.5,251.167 245.5,248.5C 239.158,248.666 232.825,248.5 226.5,248C 225.944,247.617 225.611,247.117 225.5,246.5C 224.865,237.766 225.532,229.433 227.5,221.5 Z"/></g>
<g><path style="opacity:1" fill="#b83b3f" d="M 35.5,212.5 C 35.5,211.833 35.8333,211.5 36.5,211.5C 47.5,211.5 58.5,211.5 69.5,211.5C 69.5,214.833 69.5,218.167 69.5,221.5C 61.9129,221.186 54.4129,221.519 47,222.5C 46.5002,232.494 46.3335,242.494 46.5,252.5C 53.5097,252.332 60.5097,251.999 67.5,251.5C 67.5,255.167 67.5,258.833 67.5,262.5C 60.5778,262.188 53.7445,262.521 47,263.5C 46.831,277.006 46.331,290.34 45.5,303.5C 45.5,303.167 45.5,302.833 45.5,302.5C 45.5,288.833 45.5,275.167 45.5,261.5C 52.5,261.5 59.5,261.5 66.5,261.5C 66.5,258.833 66.5,256.167 66.5,253.5C 59.4562,253.575 52.6228,253.575 46,253.5C 45.1909,242.424 45.3575,231.424 46.5,220.5C 53.8333,220.5 61.1667,220.5 68.5,220.5C 68.5,217.833 68.5,215.167 68.5,212.5C 57.8333,212.5 47.1667,212.5 36.5,212.5C 36.1667,212.5 35.8333,212.5 35.5,212.5 Z"/></g>
<g><path style="opacity:0.953" fill="#862b31" d="M 312.5,251.5 C 316.1,252.62 319.767,253.787 323.5,255C 324.756,255.417 325.423,256.25 325.5,257.5C 320.557,256.639 316.224,254.639 312.5,251.5 Z"/></g>
<g><path style="opacity:0.167" fill="#310200" d="M 156.5,245.5 C 158.41,248.452 159.41,251.786 159.5,255.5C 158.883,255.389 158.383,255.056 158,254.5C 157.831,267.34 157.331,280.007 156.5,292.5C 156.5,276.833 156.5,261.167 156.5,245.5 Z"/></g>
<g><path style="opacity:1" fill="#ba2d31" d="M 411.5,225.5 C 412.804,245.693 412.804,266.027 411.5,286.5C 411.5,287.167 411.167,287.5 410.5,287.5C 409.391,287.557 408.391,287.89 407.5,288.5C 407.275,286.284 408.108,284.617 410,283.5C 410.5,268.837 410.667,254.17 410.5,239.5C 411.486,235.03 411.819,230.363 411.5,225.5 Z"/></g>
<g><path style="opacity:0.004" fill="#000000" d="M 136.5,256.5 C 137.833,257.167 137.833,257.167 136.5,256.5 Z"/></g>
<g><path style="opacity:0.576" fill="#4e171c" d="M 159.5,255.5 C 161.256,256.552 161.923,258.219 161.5,260.5C 160.463,259.07 159.796,257.403 159.5,255.5 Z"/></g>
<g><path style="opacity:1" fill="#c8262b" d="M 194.5,231.5 C 194.5,245.167 194.5,258.833 194.5,272.5C 193.511,277.975 193.178,283.642 193.5,289.5C 191.167,289.5 188.833,289.5 186.5,289.5C 186.333,272.83 186.5,256.163 187,239.5C 188.498,236.033 189.498,232.366 190,228.5C 191.044,230.715 191.71,233.048 192,235.5C 192.333,233.833 192.667,232.167 193,230.5C 193.383,231.056 193.883,231.389 194.5,231.5 Z"/></g>
<g><path style="opacity:0.659" fill="#591519" d="M 325.5,257.5 C 327.404,257.738 328.738,258.738 329.5,260.5C 329.5,260.833 329.5,261.167 329.5,261.5C 327.833,260.5 326.5,259.167 325.5,257.5 Z"/></g>
<g><path style="opacity:0.004" fill="#000000" d="M 212.5,258.5 C 213.833,259.167 213.833,259.167 212.5,258.5 Z"/></g>
<g><path style="opacity:1" fill="#c7252b" d="M 410.5,239.5 C 410.667,254.17 410.5,268.837 410,283.5C 408.108,284.617 407.275,286.284 407.5,288.5C 405.774,290.228 404.441,292.228 403.5,294.5C 398.547,295.329 393.547,295.663 388.5,295.5C 387.378,294.053 385.878,293.053 384,292.5C 382.915,291.264 382.082,289.931 381.5,288.5C 381.216,285.223 381.549,282.057 382.5,279C 382.833,278.833 383.167,278.667 383.5,278.5C 384.298,280.078 384.798,281.744 385,283.5C 385.986,282.829 387.153,282.829 388.5,283.5C 388.414,284.496 388.748,285.329 389.5,286C 390.833,286.167 392.167,286.333 393.5,286.5C 397.056,286.044 400.39,285.044 403.5,283.5C 404.474,265.809 404.974,248.143 405,230.5C 405.667,229.167 406.333,229.167 407,230.5C 407.988,233.424 408.654,236.424 409,239.5C 409.818,234.206 410.318,234.206 410.5,239.5 Z"/></g>
<g><path style="opacity:0.004" fill="#000000" d="M 21.5,259.5 C 22.8333,260.167 22.8333,260.167 21.5,259.5 Z"/></g>
<g><path style="opacity:0.035" fill="#45070c" d="M 448.5,251.5 C 449.797,253.371 450.797,255.371 451.5,257.5C 451.328,258.492 451.662,259.158 452.5,259.5C 452.5,260.5 452.5,261.5 452.5,262.5C 451.115,260.803 449.782,258.47 448.5,255.5C 448.5,254.167 448.5,252.833 448.5,251.5 Z"/></g>
<g><path style="opacity:1" fill="#c92629" d="M 176.5,263.5 C 173.207,266.274 171.873,269.941 172.5,274.5C 171.5,274.5 170.5,274.5 169.5,274.5C 169.33,273.178 169.663,272.011 170.5,271C 169.675,269.312 168.675,269.145 167.5,270.5C 164.652,264.462 162.652,258.129 161.5,251.5C 161.215,249.712 161.548,248.045 162.5,246.5C 163.213,244.565 164.213,244.232 165.5,245.5C 166.167,245.5 166.5,245.833 166.5,246.5C 166.517,249.523 167.517,252.19 169.5,254.5C 170.7,253.469 172.034,252.635 173.5,252C 176.309,246.446 178.642,239.946 180.5,232.5C 181.852,231.482 182.852,230.149 183.5,228.5C 183.833,228.667 184.167,228.833 184.5,229C 182.286,231.88 182.286,234.88 184.5,238C 181.899,240.179 180.399,243.013 180,246.5C 178.795,247.071 177.628,247.738 176.5,248.5C 177.098,253.441 177.098,258.441 176.5,263.5 Z"/></g>
<g><path style="opacity:0.336" fill="#520f12" d="M 184.5,243.5 C 184.5,259.5 184.5,275.5 184.5,291.5C 188.167,291.5 191.833,291.5 195.5,291.5C 191.702,292.483 187.702,292.817 183.5,292.5C 183.529,278.402 183.362,264.402 183,250.5C 180.573,257.293 178.073,263.96 175.5,270.5C 175.674,268.139 176.007,265.806 176.5,263.5C 178.974,256.742 181.641,250.076 184.5,243.5 Z"/></g>
<g><path style="opacity:0.075" fill="#2e0705" d="M 438.5,255.5 C 439.833,260.5 441.167,265.5 442.5,270.5C 439.884,266.248 438.05,261.581 437,256.5C 436.667,271.167 436.333,285.833 436,300.5C 434.301,301.406 432.467,301.739 430.5,301.5C 430.5,300.833 430.833,300.5 431.5,300.5C 433.179,300.715 434.179,300.048 434.5,298.5C 435.331,283.005 435.831,267.339 436,251.5C 436.934,252.858 437.768,254.192 438.5,255.5 Z"/></g>
<g><path style="opacity:1" fill="#c5292d" d="M 438.5,229.5 C 439.828,232.982 441.494,236.315 443.5,239.5C 443.932,240.71 444.599,241.71 445.5,242.5C 445.345,245.716 446.345,248.383 448.5,250.5C 448.5,250.833 448.5,251.167 448.5,251.5C 448.5,252.833 448.5,254.167 448.5,255.5C 447.872,260.038 449.372,263.705 453,266.5C 453.383,265.944 453.883,265.611 454.5,265.5C 454.306,267.912 452.973,268.912 450.5,268.5C 450.465,272.766 449.465,273.599 447.5,271C 448.308,270.692 448.975,270.192 449.5,269.5C 448.305,268.033 448.305,266.533 449.5,265C 446.663,262.361 444.996,259.194 444.5,255.5C 443.5,255.5 442.5,255.5 441.5,255.5C 443.378,260.54 445.045,265.706 446.5,271C 446.108,273.354 446.108,275.854 446.5,278.5C 445.833,278.167 445.167,277.833 444.5,277.5C 444.662,275.473 444.495,273.473 444,271.5C 443.617,270.944 443.117,270.611 442.5,270.5C 441.167,265.5 439.833,260.5 438.5,255.5C 438.741,253.102 438.074,251.102 436.5,249.5C 435.791,248.596 434.791,248.263 433.5,248.5C 436.255,243.825 438.255,238.825 439.5,233.5C 438.754,232.264 438.421,230.93 438.5,229.5 Z"/></g>
<g><path style="opacity:0.004" fill="#000000" d="M 131.5,263.5 C 132.833,264.167 132.833,264.167 131.5,263.5 Z"/></g>
<g><path style="opacity:0.361" fill="#531315" d="M 161.5,260.5 C 163.074,262.102 163.741,264.102 163.5,266.5C 162.262,264.786 161.595,262.786 161.5,260.5 Z"/></g>
<g><path style="opacity:1" fill="#c8252c" d="M 225.5,246.5 C 225.611,247.117 225.944,247.617 226.5,248C 232.825,248.5 239.158,248.666 245.5,248.5C 245.5,251.167 245.5,253.833 245.5,256.5C 239.5,256.5 233.5,256.5 227.5,256.5C 226.504,256.414 225.671,256.748 225,257.5C 224.5,267.828 224.334,278.161 224.5,288.5C 222.143,288.663 219.81,288.497 217.5,288C 218.5,287.5 219.5,287 220.5,286.5C 221.235,272.165 221.902,257.831 222.5,243.5C 222.833,242.167 223.167,240.833 223.5,239.5C 224.168,241.969 224.835,244.302 225.5,246.5 Z"/></g>
<g><path style="opacity:0.317" fill="#490f10" d="M 227.5,222.5 C 227.5,224.833 227.5,227.167 227.5,229.5C 228.494,234.587 228.661,239.92 228,245.5C 233.662,246.166 239.495,246.166 245.5,245.5C 246.478,245.977 247.311,246.643 248,247.5C 247.852,250.126 248.019,252.626 248.5,255C 248.415,256.107 248.081,257.107 247.5,258C 240.664,258.039 233.997,258.706 227.5,260C 227.702,269.929 227.869,280.095 228,290.5C 223.934,291.464 219.767,291.797 215.5,291.5C 215.5,291.167 215.5,290.833 215.5,290.5C 219.167,290.5 222.833,290.5 226.5,290.5C 226.5,279.833 226.5,269.167 226.5,258.5C 226.5,257.833 226.833,257.5 227.5,257.5C 233.833,257.5 240.167,257.5 246.5,257.5C 246.5,254.167 246.5,250.833 246.5,247.5C 239.91,247.811 233.41,247.478 227,246.5C 226.177,238.323 226.344,230.323 227.5,222.5 Z"/></g>
<g><path style="opacity:0.243" fill="#632324" d="M 329.5,261.5 C 330.117,261.611 330.617,261.944 331,262.5C 331.815,267.352 331.648,272.019 330.5,276.5C 330.663,271.453 330.329,266.453 329.5,261.5 Z"/></g>
<g><path style="opacity:0.922" fill="#b53640" d="M 329.5,261.5 C 329.5,261.167 329.5,260.833 329.5,260.5C 330.5,260.5 331.5,260.5 332.5,260.5C 332.666,266.842 332.5,273.175 332,279.5C 331.184,280.823 330.017,281.489 328.5,281.5C 329.6,280.395 330.267,279.062 330.5,277.5C 330.5,277.167 330.5,276.833 330.5,276.5C 331.648,272.019 331.815,267.352 331,262.5C 330.617,261.944 330.117,261.611 329.5,261.5 Z"/></g>
<g><path style="opacity:0.353" fill="#56171a" d="M 163.5,266.5 C 165.601,269.797 166.935,273.463 167.5,277.5C 165.399,274.203 164.065,270.537 163.5,266.5 Z"/></g>
<g><path style="opacity:0.969" fill="#752a2f" d="M 315.5,271.5 C 311.883,270.343 308.216,270.343 304.5,271.5C 305.272,275.452 305.605,279.452 305.5,283.5C 303.26,279.523 302.427,275.189 303,270.5C 307.079,269.371 311.245,269.204 315.5,270C 316.738,270.69 316.738,271.19 315.5,271.5 Z"/></g>
<g><path style="opacity:1" fill="#b72f33" d="M 161.5,251.5 C 162.652,258.129 164.652,264.462 167.5,270.5C 168.675,269.145 169.675,269.312 170.5,271C 169.663,272.011 169.33,273.178 169.5,274.5C 170.5,274.5 171.5,274.5 172.5,274.5C 171.873,269.941 173.207,266.274 176.5,263.5C 176.007,265.806 175.674,268.139 175.5,270.5C 173.787,271.635 173.12,273.302 173.5,275.5C 173.5,275.833 173.5,276.167 173.5,276.5C 171.565,277.15 169.565,277.483 167.5,277.5C 166.935,273.463 165.601,269.797 163.5,266.5C 163.741,264.102 163.074,262.102 161.5,260.5C 161.923,258.219 161.256,256.552 159.5,255.5C 159.41,251.786 158.41,248.452 156.5,245.5C 156.167,245.5 155.833,245.5 155.5,245.5C 155.47,244.503 155.97,243.836 157,243.5C 159.635,245.606 161.135,248.272 161.5,251.5 Z"/></g>
<g><path style="opacity:0.498" fill="#4a1413" d="M 175.5,270.5 C 175.598,272.553 174.931,274.22 173.5,275.5C 173.12,273.302 173.787,271.635 175.5,270.5 Z"/></g>
<g><path style="opacity:0.733" fill="#742531" d="M 442.5,270.5 C 443.117,270.611 443.617,270.944 444,271.5C 444.495,273.473 444.662,275.473 444.5,277.5C 443.388,275.401 442.721,273.067 442.5,270.5 Z"/></g>
<g><path style="opacity:0.645" fill="#7d3536" d="M 145.5,211.5 C 145.5,238.5 145.5,265.5 145.5,292.5C 148.833,292.5 152.167,292.5 155.5,292.5C 155.5,276.833 155.5,261.167 155.5,245.5C 155.833,245.5 156.167,245.5 156.5,245.5C 156.5,261.167 156.5,276.833 156.5,292.5C 153.154,293.271 149.654,293.938 146,294.5C 145.228,294.355 144.561,294.022 144,293.5C 143.5,275.836 143.333,258.17 143.5,240.5C 144.167,230.833 144.833,221.167 145.5,211.5 Z"/></g>
<g><path style="opacity:1" fill="#c8262a" d="M 454.5,302.5 C 453.222,302.218 452.222,301.551 451.5,300.5C 451.434,297.038 450.767,293.705 449.5,290.5C 449.36,288.97 448.693,287.97 447.5,287.5C 447.492,284.455 447.159,281.455 446.5,278.5C 446.108,275.854 446.108,273.354 446.5,271C 445.045,265.706 443.378,260.54 441.5,255.5C 442.5,255.5 443.5,255.5 444.5,255.5C 444.996,259.194 446.663,262.361 449.5,265C 448.305,266.533 448.305,268.033 449.5,269.5C 448.975,270.192 448.308,270.692 447.5,271C 449.465,273.599 450.465,272.766 450.5,268.5C 452.973,268.912 454.306,267.912 454.5,265.5C 454.5,259.833 454.5,254.167 454.5,248.5C 456.163,250.493 457.33,252.826 458,255.5C 458.333,255.167 458.667,254.833 459,254.5C 459.337,251.139 459.837,247.806 460.5,244.5C 459.161,236.728 459.661,229.061 462,221.5C 462.5,248.498 462.667,275.498 462.5,302.5C 459.833,302.5 457.167,302.5 454.5,302.5 Z"/></g>
<g><path style="opacity:0.004" fill="#000000" d="M 327.5,274.5 C 328.833,275.167 328.833,275.167 327.5,274.5 Z"/></g>
<g><path style="opacity:0.189" fill="#642226" d="M 34.5,214.5 C 34.3334,244.169 34.5,273.835 35,303.5C 36.6995,304.406 38.5328,304.739 40.5,304.5C 40.5,304.833 40.5,305.167 40.5,305.5C 38.1667,305.5 35.8333,305.5 33.5,305.5C 33.1685,274.995 33.5019,244.662 34.5,214.5 Z"/></g>
<g><path style="opacity:0.949" fill="#742a31" d="M 173.5,276.5 C 173.516,278.484 172.516,279.484 170.5,279.5C 168.962,279.547 167.962,278.88 167.5,277.5C 169.565,277.483 171.565,277.15 173.5,276.5 Z"/></g>
<g><path style="opacity:0.541" fill="#4a1b1a" d="M 282.5,270.5 C 283.167,270.5 283.5,270.833 283.5,271.5C 283.935,274.838 283.268,277.838 281.5,280.5C 280.833,280.5 280.167,280.5 279.5,280.5C 282.143,277.766 283.143,274.433 282.5,270.5 Z"/></g>
<g><path style="opacity:0.601" fill="#872529" d="M 436.5,249.5 C 438.074,251.102 438.741,253.102 438.5,255.5C 437.768,254.192 436.934,252.858 436,251.5C 435.831,267.339 435.331,283.005 434.5,298.5C 434.333,282.497 434.5,266.497 435,250.5C 435.383,249.944 435.883,249.611 436.5,249.5 Z"/></g>
<g><path style="opacity:0.416" fill="#5e1a1b" d="M 315.5,273.5 C 316.533,278.192 319.533,280.858 324.5,281.5C 326.79,280.533 328.79,279.2 330.5,277.5C 330.267,279.062 329.6,280.395 328.5,281.5C 323.675,283.235 319.508,282.235 316,278.5C 315.506,276.866 315.34,275.199 315.5,273.5 Z"/></g>
<g><path style="opacity:0.588" fill="#5d1c1e" d="M 363.5,293.5 C 359.649,294.809 355.649,294.809 351.5,293.5C 351.291,292.914 350.957,292.414 350.5,292C 351.809,265.468 351.809,238.802 350.5,212C 350.957,211.586 351.291,211.086 351.5,210.5C 355.715,209.202 359.882,209.202 364,210.5C 364.83,238.336 364.664,266.003 363.5,293.5 Z"/></g>
<g><path style="opacity:1" fill="#ba373a" d="M 362.5,211.5 C 362.5,211.833 362.5,212.167 362.5,212.5C 359.5,212.5 356.5,212.5 353.5,212.5C 353.5,239.167 353.5,265.833 353.5,292.5C 353.167,292.5 352.833,292.5 352.5,292.5C 352.5,265.5 352.5,238.5 352.5,211.5C 355.833,211.5 359.167,211.5 362.5,211.5 Z"/></g>
<g><path style="opacity:0.81" fill="#ad3c43" d="M 362.5,211.5 C 363.498,238.662 363.831,265.995 363.5,293.5C 359.629,293.815 355.962,293.482 352.5,292.5C 352.833,292.5 353.167,292.5 353.5,292.5C 356.5,292.5 359.5,292.5 362.5,292.5C 362.5,265.833 362.5,239.167 362.5,212.5C 362.5,212.167 362.5,211.833 362.5,211.5 Z"/></g>
<g><path style="opacity:1" fill="#c7282d" d="M 362.5,212.5 C 362.5,239.167 362.5,265.833 362.5,292.5C 359.5,292.5 356.5,292.5 353.5,292.5C 353.5,265.833 353.5,239.167 353.5,212.5C 356.5,212.5 359.5,212.5 362.5,212.5 Z"/></g>
<g><path style="opacity:0.706" fill="#792529" d="M 444.5,277.5 C 445.167,277.833 445.833,278.167 446.5,278.5C 447.159,281.455 447.492,284.455 447.5,287.5C 445.899,284.45 444.899,281.116 444.5,277.5 Z"/></g>
<g><path style="opacity:1" fill="#c02b2f" d="M 315.5,271.5 C 315.5,272.167 315.5,272.833 315.5,273.5C 315.34,275.199 315.506,276.866 316,278.5C 319.508,282.235 323.675,283.235 328.5,281.5C 322.938,284.816 318.105,283.816 314,278.5C 312.688,280.955 311.522,283.455 310.5,286C 312.119,286.236 313.119,287.069 313.5,288.5C 311.958,287.699 310.292,287.366 308.5,287.5C 307.026,286.564 306.026,285.23 305.5,283.5C 305.605,279.452 305.272,275.452 304.5,271.5C 308.216,270.343 311.883,270.343 315.5,271.5 Z"/></g>
<g><path style="opacity:0.439" fill="#60191a" d="M 400.5,280.5 C 400.489,282.017 399.823,283.184 398.5,284C 395.112,284.659 391.779,284.492 388.5,283.5C 388.5,282.833 388.5,282.167 388.5,281.5C 392.84,284.439 396.84,284.106 400.5,280.5 Z"/></g>
<g><path style="opacity:0.298" fill="#490908" d="M 67.5,251.5 C 68.4834,255.298 68.8168,259.298 68.5,263.5C 62.2622,264.348 56.0956,264.348 50,263.5C 49.3333,264.167 48.6667,264.833 48,265.5C 47.6667,278.5 47.3333,291.5 47,304.5C 44.9592,305.423 42.7925,305.756 40.5,305.5C 40.5,305.167 40.5,304.833 40.5,304.5C 42.2161,304.371 43.8828,304.038 45.5,303.5C 46.331,290.34 46.831,277.006 47,263.5C 53.7445,262.521 60.5778,262.188 67.5,262.5C 67.5,258.833 67.5,255.167 67.5,251.5 Z"/></g>
<g><path style="opacity:0.999" fill="#b63339" d="M 435.5,214.5 C 432.154,212.676 428.487,212.01 424.5,212.5C 424.5,241.167 424.5,269.833 424.5,298.5C 427.5,298.5 430.5,298.5 433.5,298.5C 433.5,281.833 433.5,265.167 433.5,248.5C 434.791,248.263 435.791,248.596 436.5,249.5C 435.883,249.611 435.383,249.944 435,250.5C 434.5,266.497 434.333,282.497 434.5,298.5C 434.179,300.048 433.179,300.715 431.5,300.5C 429.052,299.527 426.385,299.194 423.5,299.5C 423.5,270.167 423.5,240.833 423.5,211.5C 427.182,211.335 430.848,211.501 434.5,212C 435.252,212.671 435.586,213.504 435.5,214.5 Z"/></g>
<g><path style="opacity:0.387" fill="#671316" d="M 90.5,211.5 C 90.8333,211.5 91.1667,211.5 91.5,211.5C 91.5,240.167 91.5,268.833 91.5,297.5C 90.1667,297.5 88.8333,297.5 87.5,297.5C 86.8333,297.5 86.1667,297.5 85.5,297.5C 85.5,297.167 85.5,296.833 85.5,296.5C 85.8333,296.5 86.1667,296.5 86.5,296.5C 87.8333,296.5 89.1667,296.5 90.5,296.5C 90.5,268.167 90.5,239.833 90.5,211.5 Z"/></g>
<g><path style="opacity:0.843" fill="#6a2728" d="M 116.5,295.5 C 116.5,295.167 116.5,294.833 116.5,294.5C 123.299,293.906 129.966,293.239 136.5,292.5C 137.477,289.713 137.81,286.713 137.5,283.5C 132.167,283.5 126.833,283.5 121.5,283.5C 121.842,282.662 122.508,282.328 123.5,282.5C 128.416,281.389 133.416,281.222 138.5,282C 139.626,285.744 139.793,289.577 139,293.5C 131.613,294.907 124.113,295.574 116.5,295.5 Z"/></g>
<g><path style="opacity:1" fill="#c8262c" d="M 268.5,276.5 C 269.304,278.189 270.304,279.855 271.5,281.5C 273.167,281.833 274.833,282.167 276.5,282.5C 278.64,282.444 280.306,281.777 281.5,280.5C 284.297,280.033 285.631,278.367 285.5,275.5C 287.199,275.527 288.533,276.194 289.5,277.5C 291.176,278.183 291.843,279.517 291.5,281.5C 289.26,282.264 286.927,283.098 284.5,284C 287.197,286.81 286.697,287.643 283,286.5C 282.536,287.094 282.369,287.761 282.5,288.5C 280.497,290.015 278.163,290.681 275.5,290.5C 272.012,290.299 268.679,289.632 265.5,288.5C 263.404,285.738 261.738,282.738 260.5,279.5C 260.5,278.167 260.5,276.833 260.5,275.5C 261.232,274.192 262.066,272.858 263,271.5C 263.167,255.49 263.667,239.49 264.5,223.5C 265.791,240.508 265.791,257.508 264.5,274.5C 264.57,275.772 264.903,276.938 265.5,278C 267.157,278.725 268.157,278.225 268.5,276.5 Z"/></g>
<g><path style="opacity:0.396" fill="#6a221c" d="M 272.5,279.5 C 274.764,280.219 277.097,280.552 279.5,280.5C 278.726,281.147 277.726,281.48 276.5,281.5C 274.645,281.66 273.312,280.993 272.5,279.5 Z"/></g>
<g><path style="opacity:0.278" fill="#4a0708" d="M 464.5,228.5 C 465.468,230.607 465.802,232.941 465.5,235.5C 465.188,257.86 465.521,280.193 466.5,302.5C 466.392,303.442 466.059,304.275 465.5,305C 462.304,305.805 459.304,305.638 456.5,304.5C 459.167,304.5 461.833,304.5 464.5,304.5C 464.5,279.167 464.5,253.833 464.5,228.5 Z"/></g>
<g><path style="opacity:0.974" fill="#a83a3d" d="M 463.5,212.5 C 463.833,212.5 464.167,212.5 464.5,212.5C 464.5,213.167 464.833,213.5 465.5,213.5C 465.5,215.167 465.5,216.833 465.5,218.5C 465.384,221.86 465.051,225.193 464.5,228.5C 464.5,253.833 464.5,279.167 464.5,304.5C 461.833,304.5 459.167,304.5 456.5,304.5C 453.05,305.244 451.384,303.91 451.5,300.5C 452.222,301.551 453.222,302.218 454.5,302.5C 457.287,303.477 460.287,303.81 463.5,303.5C 463.5,273.167 463.5,242.833 463.5,212.5 Z"/></g>
<g><path style="opacity:1" fill="#82282b" d="M 293.5,283.5 C 288.084,291.033 280.751,293.866 271.5,292C 268.975,291.576 266.975,290.41 265.5,288.5C 268.679,289.632 272.012,290.299 275.5,290.5C 278.163,290.681 280.497,290.015 282.5,288.5C 284.288,288.785 285.955,288.452 287.5,287.5C 288.496,284.668 290.496,283.335 293.5,283.5 Z"/></g>
<g><path style="opacity:0.659" fill="#681f22" d="M 410.5,287.5 C 409.167,290.833 406.833,293.167 403.5,294.5C 404.441,292.228 405.774,290.228 407.5,288.5C 408.391,287.89 409.391,287.557 410.5,287.5 Z"/></g>
<g><path style="opacity:0.267" fill="#692123" d="M 447.5,287.5 C 448.693,287.97 449.36,288.97 449.5,290.5C 450.767,293.705 451.434,297.038 451.5,300.5C 449.411,296.499 448.078,292.165 447.5,287.5 Z"/></g>
<g><path style="opacity:0.62" fill="#5a2a2c" d="M 77.5,289.5 C 78.1667,289.5 78.8333,289.5 79.5,289.5C 79.5,292.167 79.5,294.833 79.5,297.5C 81.5,297.5 83.5,297.5 85.5,297.5C 86.1667,297.5 86.8333,297.5 87.5,297.5C 84.6965,298.638 81.6965,298.805 78.5,298C 78.1197,295.111 77.7863,292.277 77.5,289.5 Z"/></g>
<g><path style="opacity:0.667" fill="#7f272b" d="M 327.5,244.5 C 330.331,245.079 332.664,246.412 334.5,248.5C 335.833,250.5 337.5,252.167 339.5,253.5C 342.899,258.144 344.232,263.477 343.5,269.5C 343.331,290.173 333.331,297.673 313.5,292C 311.382,290.951 309.716,289.451 308.5,287.5C 310.292,287.366 311.958,287.699 313.5,288.5C 315.347,291.629 318.181,292.963 322,292.5C 326.65,292.045 331.15,291.045 335.5,289.5C 335.5,288.5 335.5,287.5 335.5,286.5C 336.5,286.5 337.5,286.5 338.5,286.5C 338.498,284.169 339.331,282.169 341,280.5C 341.667,273.833 341.667,267.167 341,260.5C 338.549,254.383 334.382,249.883 328.5,247C 327.748,246.329 327.414,245.496 327.5,244.5 Z"/></g>
<g><path style="opacity:0.004" fill="#000000" d="M 474.5,293.5 C 475.833,294.167 475.833,294.167 474.5,293.5 Z"/></g>
<g><path style="opacity:0.467" fill="#561619" d="M 403.5,294.5 C 403.082,295.222 402.416,295.722 401.5,296C 396.98,296.814 392.646,296.647 388.5,295.5C 393.547,295.663 398.547,295.329 403.5,294.5 Z"/></g>
<g><path style="opacity:0.004" fill="#000000" d="M 442.5,298.5 C 443.833,299.167 443.833,299.167 442.5,298.5 Z"/></g>
<g><path style="opacity:0.004" fill="#000000" d="M 284.5,301.5 C 285.833,302.167 285.833,302.167 284.5,301.5 Z"/></g>
<g><path style="opacity:0.004" fill="#000000" d="M 347.5,307.5 C 348.833,308.167 348.833,308.167 347.5,307.5 Z"/></g>
<g><path style="opacity:0.004" fill="#000000" d="M 71.5,308.5 C 72.8333,309.167 72.8333,309.167 71.5,308.5 Z"/></g>
<g><path style="opacity:0.004" fill="#000000" d="M 429.5,309.5 C 430.833,310.167 430.833,310.167 429.5,309.5 Z"/></g>
<g><path style="opacity:0.004" fill="#000000" d="M 483.5,320.5 C 484.833,321.167 484.833,321.167 483.5,320.5 Z"/></g>
<g><path style="opacity:0.004" fill="#000000" d="M 317.5,321.5 C 318.833,322.167 318.833,322.167 317.5,321.5 Z"/></g>
<g><path style="opacity:0.004" fill="#000000" d="M 16.5,323.5 C 17.8333,324.167 17.8333,324.167 16.5,323.5 Z"/></g>
<g><path style="opacity:0.004" fill="#000000" d="M 495.5,324.5 C 496.833,325.167 496.833,325.167 495.5,324.5 Z"/></g>
<g><path style="opacity:0.004" fill="#000000" d="M 433.5,325.5 C 434.833,326.167 434.833,326.167 433.5,325.5 Z"/></g>
<g><path style="opacity:0.004" fill="#000000" d="M 68.5,328.5 C 69.8333,329.167 69.8333,329.167 68.5,328.5 Z"/></g>
<g><path style="opacity:0.004" fill="#000000" d="M 14.5,334.5 C 15.8333,335.167 15.8333,335.167 14.5,334.5 Z"/></g>
<g><path style="opacity:0.004" fill="#000000" d="M 51.5,336.5 C 52.8333,337.167 52.8333,337.167 51.5,336.5 Z"/></g>
<g><path style="opacity:0.004" fill="#000000" d="M 62.5,339.5 C 63.8333,340.167 63.8333,340.167 62.5,339.5 Z"/></g>
<g><path style="opacity:0.004" fill="#000000" d="M 251.5,339.5 C 252.833,340.167 252.833,340.167 251.5,339.5 Z"/></g>
<g><path style="opacity:0.004" fill="#000000" d="M 33.5,346.5 C 34.8333,347.167 34.8333,347.167 33.5,346.5 Z"/></g>
<g><path style="opacity:0.004" fill="#000000" d="M 255.5,365.5 C 256.833,366.167 256.833,366.167 255.5,365.5 Z"/></g>
<g><path style="opacity:0.004" fill="#000000" d="M 426.5,373.5 C 427.833,374.167 427.833,374.167 426.5,373.5 Z"/></g>
<g><path style="opacity:0.004" fill="#000000" d="M 170.5,379.5 C 171.833,380.167 171.833,380.167 170.5,379.5 Z"/></g>
<g><path style="opacity:0.004" fill="#000000" d="M 60.5,383.5 C 61.8333,384.167 61.8333,384.167 60.5,383.5 Z"/></g>
<g><path style="opacity:0.004" fill="#000000" d="M 469.5,391.5 C 470.833,392.167 470.833,392.167 469.5,391.5 Z"/></g>
<g><path style="opacity:0.004" fill="#000000" d="M 81.5,394.5 C 82.8333,395.167 82.8333,395.167 81.5,394.5 Z"/></g>
<g><path style="opacity:0.004" fill="#000000" d="M 92.5,395.5 C 93.8333,396.167 93.8333,396.167 92.5,395.5 Z"/></g>
<g><path style="opacity:0.004" fill="#000000" d="M 202.5,403.5 C 203.833,404.167 203.833,404.167 202.5,403.5 Z"/></g>
<g><path style="opacity:0.004" fill="#000000" d="M 204.5,403.5 C 205.833,404.167 205.833,404.167 204.5,403.5 Z"/></g>
<g><path style="opacity:0.004" fill="#000000" d="M 89.5,410.5 C 90.8333,411.167 90.8333,411.167 89.5,410.5 Z"/></g>
<g><path style="opacity:0.004" fill="#000000" d="M 158.5,410.5 C 159.833,411.167 159.833,411.167 158.5,410.5 Z"/></g>
<g><path style="opacity:0.004" fill="#000000" d="M 310.5,414.5 C 311.833,415.167 311.833,415.167 310.5,414.5 Z"/></g>
<g><path style="opacity:0.004" fill="#000000" d="M 451.5,419.5 C 452.833,420.167 452.833,420.167 451.5,419.5 Z"/></g>
<g><path style="opacity:0.004" fill="#000000" d="M 481.5,423.5 C 482.833,424.167 482.833,424.167 481.5,423.5 Z"/></g>
<g><path style="opacity:0.004" fill="#000000" d="M 262.5,426.5 C 263.833,427.167 263.833,427.167 262.5,426.5 Z"/></g>
<g><path style="opacity:0.004" fill="#000000" d="M 16.5,435.5 C 17.8333,436.167 17.8333,436.167 16.5,435.5 Z"/></g>
<g><path style="opacity:0.004" fill="#000000" d="M 197.5,452.5 C 198.833,453.167 198.833,453.167 197.5,452.5 Z"/></g>
<g><path style="opacity:0.004" fill="#000000" d="M 159.5,456.5 C 160.833,457.167 160.833,457.167 159.5,456.5 Z"/></g>
<g><path style="opacity:0.004" fill="#000000" d="M 485.5,459.5 C 486.833,460.167 486.833,460.167 485.5,459.5 Z"/></g>
<g><path style="opacity:0.004" fill="#000000" d="M 194.5,463.5 C 195.833,464.167 195.833,464.167 194.5,463.5 Z"/></g>
<g><path style="opacity:0.004" fill="#000000" d="M 353.5,475.5 C 354.833,476.167 354.833,476.167 353.5,475.5 Z"/></g>
<g><path style="opacity:0.004" fill="#000000" d="M 48.5,486.5 C 49.8333,487.167 49.8333,487.167 48.5,486.5 Z"/></g>
<g><path style="opacity:0.004" fill="#000000" d="M 392.5,490.5 C 393.833,491.167 393.833,491.167 392.5,490.5 Z"/></g>
<g><path style="opacity:0.004" fill="#000000" d="M 418.5,495.5 C 419.833,496.167 419.833,496.167 418.5,495.5 Z"/></g>
</svg>
